<mxfile host="app.diagrams.net" modified="2022-10-19T03:14:24.366Z" agent="5.0 (Windows NT 10.0; Win64; x64) AppleWebKit/537.36 (KHTML, like Gecko) Chrome/106.0.0.0 Safari/537.36" etag="Enz9LoLeOreNtWv9PxhI" version="20.4.1" type="github">
  <diagram id="iwksW8lEPGX_3zX38YxY" name="第 1 页">
    <mxGraphModel dx="838" dy="687" grid="1" gridSize="10" guides="1" tooltips="1" connect="1" arrows="1" fold="1" page="1" pageScale="1" pageWidth="827" pageHeight="1169" math="0" shadow="0">
      <root>
        <mxCell id="0" />
        <mxCell id="1" parent="0" />
        <mxCell id="CbdVZrtYhTQYkVBNdqK1-3" value="" style="edgeStyle=orthogonalEdgeStyle;rounded=0;orthogonalLoop=1;jettySize=auto;html=1;" edge="1" parent="1" source="CbdVZrtYhTQYkVBNdqK1-1" target="CbdVZrtYhTQYkVBNdqK1-2">
          <mxGeometry relative="1" as="geometry" />
        </mxCell>
        <mxCell id="CbdVZrtYhTQYkVBNdqK1-1" value="" style="shape=cylinder3;whiteSpace=wrap;html=1;boundedLbl=1;backgroundOutline=1;size=15;" vertex="1" parent="1">
          <mxGeometry x="380" y="310" width="60" height="80" as="geometry" />
        </mxCell>
        <mxCell id="CbdVZrtYhTQYkVBNdqK1-2" value="" style="verticalLabelPosition=bottom;verticalAlign=top;html=1;shape=card;whiteSpace=wrap;size=20;arcSize=12;" vertex="1" parent="1">
          <mxGeometry x="530" y="320" width="100" height="60" as="geometry" />
        </mxCell>
      </root>
    </mxGraphModel>
  </diagram>
</mxfile>
